<svg width="714" height="108" viewBox="0 0 714 108" fill="none" xmlns="http://www.w3.org/2000/svg">
<mask id="mask0_804_1470" style="mask-type:alpha" maskUnits="userSpaceOnUse" x="4" y="0" width="263" height="100">
<path d="M265.414 0.58506C265.86 0.422589 266.261 0.915298 266.01 1.3187L221.454 73.0548C221.373 73.1857 221.236 73.2718 221.082 73.2882L4.98311 96.4576C4.39607 96.5205 4.20396 95.6926 4.75874 95.4906L265.414 0.58506Z" fill="#F4920B"/>
<path d="M205.936 79.0074C206.405 78.9557 206.678 79.5212 206.346 79.8561L186.831 99.5765C186.735 99.6738 186.603 99.7274 186.466 99.7247L43.8078 96.8952L205.936 79.0074Z" fill="#F4920B"/>
<path d="M224.075 7.32599C224.663 7.23952 224.884 8.06858 224.331 8.28603L111.931 52.455C111.421 52.6553 110.999 51.9894 111.383 51.599C127.329 35.3995 118.158 30.2512 60.1016 31.4298L224.075 7.32599Z" fill="#F4920B"/>
</mask>
<g mask="url(#mask0_804_1470)">
<path d="M57.9658 28.7401L231.112 4.67725L199.138 20.8364L109.322 57.8404L74.8332 49.9366L57.9658 28.7401Z" fill="#F59007"/>
<path d="M77.7073 66.1034L272.069 -2.15625L222.85 74.0072L48.2479 94.4852L-4.20459 98.7963L77.7073 66.1034Z" fill="#D9D9D9"/>
<path d="M77.7073 66.1034L272.069 -2.15625L222.85 74.0072L48.2479 94.4852L-4.20459 98.7963L77.7073 66.1034Z" fill="#D9D9D9"/>
<path d="M77.7073 66.1034L272.069 -2.15625L222.85 74.0072L48.2479 94.4852L-4.20459 98.7963L77.7073 66.1034Z" fill="#D9D9D9"/>
<path d="M77.7073 66.1034L272.069 -2.15625L222.85 74.0072L48.2479 94.4852L-4.20459 98.7963L77.7073 66.1034Z" fill="#030045"/>
<path d="M77.7073 66.1034L272.069 -2.15625L222.85 74.0072L48.2479 94.4852L-4.20459 98.7963L77.7073 66.1034Z" fill="#030045"/>
<path d="M77.7073 66.1034L272.069 -2.15625L222.85 74.0072L48.2479 94.4852L-4.20459 98.7963L77.7073 66.1034Z" fill="#030045"/>
<path d="M30.103 96.3805L209.197 77.5996L201.196 96.3805L189.383 103.822H111.267L58.3012 101.341L30.103 96.3805Z" fill="#590503"/>
<path d="M30.103 96.3805L209.197 77.5996L201.196 96.3805L189.383 103.822H111.267L58.3012 101.341L30.103 96.3805Z" fill="#590503"/>
<path d="M30.103 96.3805L209.197 77.5996L201.196 96.3805L189.383 103.822H111.267L58.3012 101.341L30.103 96.3805Z" fill="#590503"/>
</g>
<path d="M286.083 49.9097V16.3097H293.859V49.9097H286.083ZM303.033 49.9097V16.3097H309.465L329.289 40.5017H326.169V16.3097H333.849V49.9097H327.465L307.593 25.7177H310.713V49.9097H303.033ZM349.958 49.9097V22.6457H339.206V16.3097H368.486V22.6457H357.734V49.9097H349.958ZM381.022 29.8457H397.198V35.8937H381.022V29.8457ZM381.598 43.6697H399.886V49.9097H373.87V16.3097H399.262V22.5497H381.598V43.6697ZM407.273 49.9097V16.3097H421.817C424.825 16.3097 427.417 16.8057 429.593 17.7977C431.769 18.7577 433.449 20.1497 434.633 21.9737C435.817 23.7977 436.409 25.9737 436.409 28.5017C436.409 30.9977 435.817 33.1577 434.633 34.9817C433.449 36.7737 431.769 38.1497 429.593 39.1097C427.417 40.0697 424.825 40.5497 421.817 40.5497H411.593L415.049 37.1417V49.9097H407.273ZM428.633 49.9097L420.233 37.7177H428.537L437.033 49.9097H428.633ZM415.049 38.0057L411.593 34.3577H421.385C423.785 34.3577 425.577 33.8457 426.761 32.8217C427.945 31.7657 428.537 30.3257 428.537 28.5017C428.537 26.6457 427.945 25.2057 426.761 24.1817C425.577 23.1577 423.785 22.6457 421.385 22.6457H411.593L415.049 18.9497V38.0057ZM443.77 49.9097V16.3097H450.202L470.026 40.5017H466.906V16.3097H474.586V49.9097H468.202L448.33 25.7177H451.45V49.9097H443.77ZM479.32 49.9097L494.296 16.3097H501.976L517 49.9097H508.84L496.552 20.2457H499.624L487.288 49.9097H479.32ZM486.808 42.7097L488.872 36.8057H506.152L508.264 42.7097H486.808ZM526.958 49.9097V22.6457H516.206V16.3097H545.486V22.6457H534.734V49.9097H526.958ZM550.87 49.9097V16.3097H558.646V49.9097H550.87ZM584.14 50.4857C581.484 50.4857 579.02 50.0537 576.748 49.1897C574.508 48.3257 572.556 47.1097 570.892 45.5417C569.26 43.9737 567.98 42.1337 567.052 40.0217C566.156 37.9097 565.708 35.6057 565.708 33.1097C565.708 30.6137 566.156 28.3097 567.052 26.1977C567.98 24.0857 569.276 22.2457 570.94 20.6777C572.604 19.1097 574.556 17.8937 576.796 17.0297C579.036 16.1657 581.468 15.7337 584.092 15.7337C586.748 15.7337 589.18 16.1657 591.388 17.0297C593.628 17.8937 595.564 19.1097 597.196 20.6777C598.86 22.2457 600.156 24.0857 601.084 26.1977C602.012 28.2777 602.476 30.5817 602.476 33.1097C602.476 35.6057 602.012 37.9257 601.084 40.0697C600.156 42.1817 598.86 44.0217 597.196 45.5897C595.564 47.1257 593.628 48.3257 591.388 49.1897C589.18 50.0537 586.764 50.4857 584.14 50.4857ZM584.092 43.8617C585.596 43.8617 586.972 43.6057 588.22 43.0937C589.5 42.5817 590.62 41.8457 591.58 40.8857C592.54 39.9257 593.276 38.7897 593.788 37.4777C594.332 36.1657 594.604 34.7097 594.604 33.1097C594.604 31.5097 594.332 30.0537 593.788 28.7417C593.276 27.4297 592.54 26.2937 591.58 25.3337C590.652 24.3737 589.548 23.6377 588.268 23.1257C586.988 22.6137 585.596 22.3577 584.092 22.3577C582.588 22.3577 581.196 22.6137 579.916 23.1257C578.668 23.6377 577.564 24.3737 576.604 25.3337C575.644 26.2937 574.892 27.4297 574.348 28.7417C573.836 30.0537 573.58 31.5097 573.58 33.1097C573.58 34.6777 573.836 36.1337 574.348 37.4777C574.892 38.7897 575.628 39.9257 576.556 40.8857C577.516 41.8457 578.636 42.5817 579.916 43.0937C581.196 43.6057 582.588 43.8617 584.092 43.8617ZM609.52 49.9097V16.3097H615.952L635.776 40.5017H632.656V16.3097H640.336V49.9097H633.952L614.08 25.7177H617.2V49.9097H609.52ZM645.07 49.9097L660.046 16.3097H667.726L682.75 49.9097H674.59L662.302 20.2457H665.374L653.038 49.9097H645.07ZM652.558 42.7097L654.622 36.8057H671.902L674.014 42.7097H652.558ZM687.436 49.9097V16.3097H695.212V43.5737H712.06V49.9097H687.436Z" fill="#030045"/>
<path d="M293.283 77.4297H309.411V83.6697H293.283V77.4297ZM293.859 95.9097H286.083V62.3097H311.475V68.5497H293.859V95.9097ZM331.667 96.4857C326.899 96.4857 323.171 95.1577 320.483 92.5017C317.795 89.8457 316.451 86.0537 316.451 81.1257V62.3097H324.227V80.8377C324.227 84.0377 324.883 86.3417 326.195 87.7497C327.507 89.1577 329.347 89.8617 331.715 89.8617C334.083 89.8617 335.923 89.1577 337.235 87.7497C338.547 86.3417 339.203 84.0377 339.203 80.8377V62.3097H346.883V81.1257C346.883 86.0537 345.539 89.8457 342.851 92.5017C340.163 95.1577 336.435 96.4857 331.667 96.4857ZM360.965 95.9097V68.6457H350.213V62.3097H379.493V68.6457H368.741V95.9097H360.965ZM398.042 96.4857C393.274 96.4857 389.546 95.1577 386.858 92.5017C384.17 89.8457 382.826 86.0537 382.826 81.1257V62.3097H390.602V80.8377C390.602 84.0377 391.258 86.3417 392.57 87.7497C393.882 89.1577 395.722 89.8617 398.09 89.8617C400.458 89.8617 402.298 89.1577 403.61 87.7497C404.922 86.3417 405.578 84.0377 405.578 80.8377V62.3097H413.258V81.1257C413.258 86.0537 411.914 89.8457 409.226 92.5017C406.538 95.1577 402.81 96.4857 398.042 96.4857ZM420.942 95.9097V62.3097H435.486C438.494 62.3097 441.086 62.8057 443.262 63.7977C445.438 64.7577 447.118 66.1497 448.302 67.9737C449.486 69.7977 450.078 71.9737 450.078 74.5017C450.078 76.9977 449.486 79.1577 448.302 80.9817C447.118 82.7737 445.438 84.1497 443.262 85.1097C441.086 86.0697 438.494 86.5497 435.486 86.5497H425.262L428.718 83.1417V95.9097H420.942ZM442.302 95.9097L433.902 83.7177H442.206L450.702 95.9097H442.302ZM428.718 84.0057L425.262 80.3577H435.054C437.454 80.3577 439.246 79.8457 440.43 78.8217C441.614 77.7657 442.206 76.3257 442.206 74.5017C442.206 72.6457 441.614 71.2057 440.43 70.1817C439.246 69.1577 437.454 68.6457 435.054 68.6457H425.262L428.718 64.9497V84.0057ZM463.391 75.8457H479.567V81.8937H463.391V75.8457ZM463.967 89.6697H482.255V95.9097H456.239V62.3097H481.631V68.5497H463.967V89.6697ZM513.076 96.4857C510.388 96.4857 507.812 96.1337 505.348 95.4297C502.884 94.6937 500.9 93.7497 499.396 92.5977L502.036 86.7417C503.476 87.7657 505.172 88.6137 507.124 89.2857C509.108 89.9257 511.108 90.2457 513.124 90.2457C514.66 90.2457 515.892 90.1017 516.82 89.8137C517.78 89.4937 518.484 89.0617 518.932 88.5177C519.38 87.9737 519.604 87.3497 519.604 86.6457C519.604 85.7497 519.252 85.0457 518.548 84.5337C517.844 83.9897 516.916 83.5577 515.764 83.2377C514.612 82.8857 513.332 82.5657 511.924 82.2777C510.548 81.9577 509.156 81.5737 507.748 81.1257C506.372 80.6777 505.108 80.1017 503.956 79.3977C502.804 78.6937 501.86 77.7657 501.124 76.6137C500.42 75.4617 500.068 73.9897 500.068 72.1977C500.068 70.2777 500.58 68.5337 501.604 66.9657C502.66 65.3657 504.228 64.1017 506.308 63.1737C508.42 62.2137 511.06 61.7337 514.228 61.7337C516.34 61.7337 518.42 61.9897 520.468 62.5017C522.516 62.9817 524.324 63.7177 525.892 64.7097L523.492 70.6137C521.924 69.7177 520.356 69.0617 518.788 68.6457C517.22 68.1977 515.684 67.9737 514.18 67.9737C512.676 67.9737 511.444 68.1497 510.484 68.5017C509.524 68.8537 508.836 69.3177 508.42 69.8937C508.004 70.4377 507.796 71.0777 507.796 71.8137C507.796 72.6777 508.148 73.3817 508.852 73.9257C509.556 74.4377 510.484 74.8537 511.636 75.1737C512.788 75.4937 514.052 75.8137 515.428 76.1337C516.836 76.4537 518.228 76.8217 519.604 77.2377C521.012 77.6537 522.292 78.2137 523.444 78.9177C524.596 79.6217 525.524 80.5497 526.228 81.7017C526.964 82.8537 527.332 84.3097 527.332 86.0697C527.332 87.9577 526.804 89.6857 525.748 91.2537C524.692 92.8217 523.108 94.0857 520.996 95.0457C518.916 96.0057 516.276 96.4857 513.076 96.4857ZM548.725 96.4857C546.133 96.4857 543.717 96.0697 541.477 95.2377C539.269 94.3737 537.349 93.1577 535.717 91.5897C534.085 90.0217 532.805 88.1817 531.877 86.0697C530.981 83.9577 530.533 81.6377 530.533 79.1097C530.533 76.5817 530.981 74.2617 531.877 72.1497C532.805 70.0377 534.085 68.1977 535.717 66.6297C537.381 65.0617 539.317 63.8617 541.525 63.0297C543.733 62.1657 546.149 61.7337 548.773 61.7337C551.685 61.7337 554.309 62.2457 556.645 63.2697C559.013 64.2617 560.997 65.7337 562.597 67.6857L557.605 72.2937C556.453 70.9817 555.173 70.0057 553.765 69.3657C552.357 68.6937 550.821 68.3577 549.157 68.3577C547.589 68.3577 546.149 68.6137 544.837 69.1257C543.525 69.6377 542.389 70.3737 541.429 71.3337C540.469 72.2937 539.717 73.4297 539.173 74.7417C538.661 76.0537 538.405 77.5097 538.405 79.1097C538.405 80.7097 538.661 82.1657 539.173 83.4777C539.717 84.7897 540.469 85.9257 541.429 86.8857C542.389 87.8457 543.525 88.5817 544.837 89.0937C546.149 89.6057 547.589 89.8617 549.157 89.8617C550.821 89.8617 552.357 89.5417 553.765 88.9017C555.173 88.2297 556.453 87.2217 557.605 85.8777L562.597 90.4857C560.997 92.4377 559.013 93.9257 556.645 94.9497C554.309 95.9737 551.669 96.4857 548.725 96.4857ZM590.888 62.3097H598.664V95.9097H590.888V62.3097ZM575.624 95.9097H567.848V62.3097H575.624V95.9097ZM591.464 82.1337H575.048V75.5577H591.464V82.1337ZM622.934 96.4857C620.278 96.4857 617.814 96.0537 615.542 95.1897C613.302 94.3257 611.35 93.1097 609.686 91.5417C608.054 89.9737 606.774 88.1337 605.846 86.0217C604.95 83.9097 604.502 81.6057 604.502 79.1097C604.502 76.6137 604.95 74.3097 605.846 72.1977C606.774 70.0857 608.07 68.2457 609.734 66.6777C611.398 65.1097 613.35 63.8937 615.59 63.0297C617.83 62.1657 620.262 61.7337 622.886 61.7337C625.542 61.7337 627.974 62.1657 630.182 63.0297C632.422 63.8937 634.358 65.1097 635.99 66.6777C637.654 68.2457 638.95 70.0857 639.878 72.1977C640.806 74.2777 641.27 76.5817 641.27 79.1097C641.27 81.6057 640.806 83.9257 639.878 86.0697C638.95 88.1817 637.654 90.0217 635.99 91.5897C634.358 93.1257 632.422 94.3257 630.182 95.1897C627.974 96.0537 625.558 96.4857 622.934 96.4857ZM622.886 89.8617C624.39 89.8617 625.766 89.6057 627.014 89.0937C628.294 88.5817 629.414 87.8457 630.374 86.8857C631.334 85.9257 632.07 84.7897 632.582 83.4777C633.126 82.1657 633.398 80.7097 633.398 79.1097C633.398 77.5097 633.126 76.0537 632.582 74.7417C632.07 73.4297 631.334 72.2937 630.374 71.3337C629.446 70.3737 628.342 69.6377 627.062 69.1257C625.782 68.6137 624.39 68.3577 622.886 68.3577C621.382 68.3577 619.99 68.6137 618.71 69.1257C617.462 69.6377 616.358 70.3737 615.398 71.3337C614.438 72.2937 613.686 73.4297 613.142 74.7417C612.63 76.0537 612.374 77.5097 612.374 79.1097C612.374 80.6777 612.63 82.1337 613.142 83.4777C613.686 84.7897 614.422 85.9257 615.35 86.8857C616.31 87.8457 617.43 88.5817 618.71 89.0937C619.99 89.6057 621.382 89.8617 622.886 89.8617ZM663.434 96.4857C660.778 96.4857 658.314 96.0537 656.042 95.1897C653.802 94.3257 651.85 93.1097 650.186 91.5417C648.554 89.9737 647.274 88.1337 646.346 86.0217C645.45 83.9097 645.002 81.6057 645.002 79.1097C645.002 76.6137 645.45 74.3097 646.346 72.1977C647.274 70.0857 648.57 68.2457 650.234 66.6777C651.898 65.1097 653.85 63.8937 656.09 63.0297C658.33 62.1657 660.762 61.7337 663.386 61.7337C666.042 61.7337 668.474 62.1657 670.682 63.0297C672.922 63.8937 674.858 65.1097 676.49 66.6777C678.154 68.2457 679.45 70.0857 680.378 72.1977C681.306 74.2777 681.77 76.5817 681.77 79.1097C681.77 81.6057 681.306 83.9257 680.378 86.0697C679.45 88.1817 678.154 90.0217 676.49 91.5897C674.858 93.1257 672.922 94.3257 670.682 95.1897C668.474 96.0537 666.058 96.4857 663.434 96.4857ZM663.386 89.8617C664.89 89.8617 666.266 89.6057 667.514 89.0937C668.794 88.5817 669.914 87.8457 670.874 86.8857C671.834 85.9257 672.57 84.7897 673.082 83.4777C673.626 82.1657 673.898 80.7097 673.898 79.1097C673.898 77.5097 673.626 76.0537 673.082 74.7417C672.57 73.4297 671.834 72.2937 670.874 71.3337C669.946 70.3737 668.842 69.6377 667.562 69.1257C666.282 68.6137 664.89 68.3577 663.386 68.3577C661.882 68.3577 660.49 68.6137 659.21 69.1257C657.962 69.6377 656.858 70.3737 655.898 71.3337C654.938 72.2937 654.186 73.4297 653.642 74.7417C653.13 76.0537 652.874 77.5097 652.874 79.1097C652.874 80.6777 653.13 82.1337 653.642 83.4777C654.186 84.7897 654.922 85.9257 655.85 86.8857C656.81 87.8457 657.93 88.5817 659.21 89.0937C660.49 89.6057 661.882 89.8617 663.386 89.8617ZM687.614 95.9097V62.3097H695.39V89.5737H712.238V95.9097H687.614Z" fill="#F59007"/>
</svg>
