<svg width="363" height="363" viewBox="0 0 363 363" fill="none" xmlns="http://www.w3.org/2000/svg">
<rect y="0.943359" width="362.057" height="362.057" rx="120" fill="white"/>
<mask id="mask0_804_1479" style="mask-type:alpha" maskUnits="userSpaceOnUse" x="44" y="121" width="277" height="105">
<path d="M319.332 121.795C319.778 121.632 320.178 122.125 319.928 122.528L273.072 197.967C272.991 198.098 272.854 198.184 272.7 198.2L45.448 222.565C44.8609 222.628 44.6688 221.8 45.2236 221.598L319.332 121.795Z" fill="#F4920B"/>
<path d="M256.847 204.202C257.315 204.15 257.588 204.716 257.257 205.051L236.696 225.828C236.6 225.925 236.468 225.978 236.331 225.976L86.4437 223.003L256.847 204.202Z" fill="#F4920B"/>
<path d="M276.05 128.87C276.639 128.783 276.859 129.612 276.306 129.83L157.894 176.361C157.385 176.561 156.961 175.899 157.345 175.509C174.226 158.415 164.668 152.984 103.562 154.225L276.05 128.87Z" fill="#F4920B"/>
</mask>
<g mask="url(#mask0_804_1479)">
<path d="M101.318 151.399L283.226 126.119L249.634 143.095L155.273 181.972L119.039 173.668L101.318 151.399Z" fill="#F59007"/>
<path d="M122.058 190.653L326.254 118.939L274.545 198.957L91.1085 220.471L36.002 225L122.058 190.653Z" fill="#D9D9D9"/>
<path d="M122.058 190.653L326.254 118.939L274.545 198.957L91.1085 220.471L36.002 225L122.058 190.653Z" fill="#D9D9D9"/>
<path d="M122.058 190.653L326.254 118.939L274.545 198.957L91.1085 220.471L36.002 225L122.058 190.653Z" fill="#D9D9D9"/>
<path d="M122.058 190.653L326.254 118.939L274.545 198.957L91.1085 220.471L36.002 225L122.058 190.653Z" fill="#030045"/>
<path d="M122.058 190.653L326.254 118.939L274.545 198.957L91.1085 220.471L36.002 225L122.058 190.653Z" fill="#030045"/>
<path d="M122.058 190.653L326.254 118.939L274.545 198.957L91.1085 220.471L36.002 225L122.058 190.653Z" fill="#030045"/>
<path d="M72.0459 222.462L260.202 202.731L251.795 222.462L239.385 230.28H157.317L101.671 227.674L72.0459 222.462Z" fill="#590503"/>
<path d="M72.0459 222.462L260.202 202.731L251.795 222.462L239.385 230.28H157.317L101.671 227.674L72.0459 222.462Z" fill="#590503"/>
<path d="M72.0459 222.462L260.202 202.731L251.795 222.462L239.385 230.28H157.317L101.671 227.674L72.0459 222.462Z" fill="#590503"/>
</g>
</svg>
